<svg xmlns="http://www.w3.org/2000/svg" viewBox="0 0 1130 488" width="1130" height="488">
  <path d="M1017.0,466.1C1017.0,465.6 1015.5,464.5 1013.6,463.6C1011.8,462.8 1009.1,460.2 1007.6,458.0C1005.3,454.6 1005.0,453.0 1005.0,446.1C1005.0,441.7 1005.5,437.8 1006.0,437.5C1006.5,437.2 1007.0,435.6 1007.0,433.9C1007.0,432.3 1007.5,431.0 1008.0,431.0C1008.5,431.0 1009.0,429.2 1009.0,427.1C1009.0,424.9 1009.5,422.8 1010.0,422.5C1010.5,422.2 1011.0,420.8 1011.0,419.5C1011.0,418.2 1011.5,416.8 1012.0,416.5C1012.5,416.2 1013.0,414.1 1013.0,412.0C1013.0,409.9 1013.5,407.8 1014.0,407.5C1014.5,407.2 1015.0,405.6 1015.0,404.0C1015.0,402.4 1015.5,400.8 1016.0,400.5C1016.5,400.2 1017.0,398.4 1017.0,396.5C1017.0,394.6 1017.5,392.8 1018.0,392.5C1018.5,392.2 1019.0,390.4 1019.0,388.5C1019.0,386.6 1019.5,384.8 1020.0,384.5C1020.5,384.2 1021.0,382.3 1021.0,380.4C1021.0,378.5 1021.5,377.0 1022.0,377.0C1022.5,377.0 1023.0,375.8 1023.0,374.3C1023.0,371.6 1024.5,365.9 1026.1,362.8C1026.6,361.8 1027.0,359.5 1027.0,357.6C1027.0,355.7 1027.5,353.8 1028.0,353.5C1028.5,353.2 1029.0,351.8 1029.0,350.5C1029.0,349.2 1029.5,347.8 1030.0,347.5C1030.5,347.2 1031.0,345.1 1031.0,342.9C1031.0,340.8 1031.5,339.0 1032.0,339.0C1032.5,339.0 1033.0,337.5 1033.0,335.6C1033.0,333.7 1033.5,331.8 1034.0,331.5C1034.5,331.2 1035.0,329.4 1035.0,327.5C1035.0,325.6 1035.5,323.8 1036.0,323.5C1036.5,323.2 1037.0,321.9 1037.0,320.8C1037.0,318.5 1038.7,312.7 1040.1,309.8C1041.1,307.8 1041.3,303.0 1040.4,303.0C1040.0,303.0 1039.0,303.8 1038.1,304.8C1035.2,307.9 1028.6,312.5 1023.5,314.9C1020.8,316.2 1017.7,317.6 1016.8,318.1C1014.4,319.3 991.3,319.2 990.5,318.0C990.2,317.4 988.3,317.0 986.4,317.0C984.5,317.0 983.0,316.6 983.0,316.0C983.0,315.4 982.3,315.0 981.5,315.0C977.9,315.0 967.0,305.9 967.0,302.8C967.0,301.8 966.7,301.0 966.2,301.0C965.1,301.0 963.0,295.9 963.0,293.3C963.0,292.0 962.5,291.0 962.0,291.0C961.5,291.0 961.0,289.6 961.0,287.9L961.0,284.9L957.8,287.1C956.0,288.4 952.6,291.1 950.2,293.1C947.9,295.1 944.4,297.5 942.5,298.4C940.6,299.3 938.8,300.5 938.5,301.0C938.2,301.5 936.7,302.5 935.2,303.3C933.7,304.0 931.4,305.2 930.0,306.0C928.6,306.7 926.8,307.6 926.0,308.0C925.2,308.4 923.6,309.2 922.5,309.7C921.4,310.3 919.1,311.3 917.5,312.0C915.9,312.7 913.7,313.6 912.8,314.1C911.8,314.6 910.2,315.0 909.2,315.0C908.2,315.0 907.0,315.4 906.5,315.9C905.9,316.4 902.6,317.1 899.0,317.4C895.4,317.8 889.6,318.3 886.1,318.6C882.1,319.0 879.4,318.8 878.7,318.1C878.1,317.5 875.7,317.0 873.3,317.0C870.9,317.0 868.2,316.6 867.2,316.1C866.3,315.6 863.2,314.2 860.5,312.9C853.3,309.5 839.0,294.9 839.0,290.9C839.0,290.3 838.4,289.2 837.6,288.4C836.8,287.7 836.0,286.5 835.7,285.8C835.4,285.0 830.9,288.8 824.4,295.1C818.4,300.9 812.0,306.5 810.2,307.6C808.5,308.6 807.0,309.8 807.0,310.2C807.0,310.6 806.5,311.0 805.9,311.0C805.3,311.0 803.0,312.3 800.7,313.8C793.4,318.7 784.5,321.0 773.2,321.0C767.5,321.0 762.8,320.6 762.5,320.0C762.2,319.4 761.2,319.0 760.3,319.0C756.5,319.0 749.0,310.7 749.0,306.4C749.0,305.7 748.4,305.0 747.8,304.8C746.8,304.4 746.5,300.6 746.5,290.2C746.5,280.3 746.9,275.7 747.8,274.9C748.4,274.2 749.0,272.8 749.0,271.8C749.0,270.8 749.5,269.1 750.0,268.0C750.5,266.9 751.5,265.1 752.0,264.0C754.1,259.9 752.7,252.4 750.5,256.0C750.2,256.6 748.8,257.0 747.5,257.0C746.2,257.0 744.8,257.4 744.5,258.0C744.2,258.6 741.0,259.0 737.4,259.0C733.8,259.0 731.0,258.6 731.0,258.0C731.0,257.4 730.2,257.0 729.2,257.0C727.0,257.0 723.9,253.7 722.2,249.7C721.5,248.2 721.0,243.7 721.0,239.9C721.0,234.4 721.5,232.1 723.1,229.7C724.2,227.9 722.9,229.0 720.1,232.0C717.3,235.0 715.0,238.3 715.0,239.2C715.0,240.1 714.5,241.2 714.0,241.5C713.5,241.8 713.0,243.4 713.0,245.0C713.0,246.6 712.5,248.2 712.0,248.5C711.5,248.8 711.0,251.3 711.0,254.0C711.0,256.7 710.5,259.2 710.0,259.5C709.5,259.8 709.0,261.6 709.0,263.5C709.0,265.4 708.5,267.2 708.0,267.5C707.5,267.8 707.0,270.3 707.0,272.9C707.0,275.5 706.6,278.0 706.1,278.6C705.6,279.1 704.9,281.4 704.6,283.8C704.3,286.1 703.7,289.9 703.4,292.2C703.1,294.6 702.4,296.9 701.9,297.4C701.4,298.0 701.0,300.3 701.0,302.6C701.0,305.0 700.5,307.2 700.0,307.5C699.5,307.8 699.0,309.1 699.0,310.3C699.0,313.6 696.0,314.9 686.7,315.6C675.0,316.5 669.6,315.6 668.1,312.4C666.7,309.3 666.6,296.3 668.0,295.5C668.5,295.2 669.0,293.6 669.0,291.9C669.0,290.3 669.5,289.0 670.0,289.0C670.5,289.0 671.0,287.5 671.0,285.6C671.0,283.7 671.5,281.8 672.0,281.5C672.5,281.2 673.0,279.6 673.0,277.9C673.0,276.3 673.5,275.0 674.0,275.0C674.5,275.0 675.0,273.2 675.0,271.0C675.0,268.8 675.5,267.0 676.0,267.0C676.5,267.0 677.0,265.7 677.0,264.1C677.0,262.4 677.5,260.8 678.0,260.5C678.5,260.2 679.0,258.6 679.0,256.9C679.0,255.3 679.4,253.2 679.9,252.2C681.0,250.0 683.0,241.6 683.0,239.0C683.0,237.9 683.5,237.0 684.0,237.0C684.5,237.0 685.0,236.1 685.0,235.0C685.0,232.5 684.2,232.5 681.0,235.0C679.6,236.1 678.1,237.0 677.7,237.0C677.2,237.0 675.6,237.8 674.2,238.9C670.8,241.3 665.9,244.0 658.0,248.0C656.9,248.6 655.4,249.0 654.6,249.0C652.2,249.0 647.0,254.9 647.0,257.6C647.0,258.9 646.5,260.9 646.0,262.0C645.5,263.1 644.5,264.9 644.0,266.0C643.5,267.1 643.0,268.7 643.0,269.5C643.0,270.3 642.5,271.0 642.0,271.0C641.5,271.0 641.0,271.6 641.0,272.3C641.0,274.1 638.6,279.0 637.8,279.0C637.3,279.0 637.0,279.9 637.0,281.0C637.0,282.1 636.1,283.5 635.0,284.2C633.9,284.9 633.0,286.1 633.0,286.9C633.0,287.6 631.5,289.9 629.8,292.0C628.0,294.0 625.1,297.3 623.5,299.3C621.9,301.3 620.0,303.0 619.4,303.0C618.8,303.0 617.5,303.9 616.5,305.0C615.5,306.1 614.2,307.0 613.5,307.0C612.9,307.0 611.5,307.8 610.4,308.8C607.4,311.4 604.2,313.0 602.1,313.0C601.0,313.0 599.8,313.5 599.5,314.0C599.2,314.6 597.6,315.0 596.0,315.0C594.4,315.0 592.8,315.4 592.5,316.0C592.1,316.6 586.2,317.0 578.0,317.0C569.8,317.0 563.9,316.6 563.5,316.0C563.2,315.4 561.6,315.0 559.9,315.0C558.3,315.0 557.0,314.6 557.0,314.0C557.0,313.4 556.3,313.0 555.4,313.0C553.9,313.0 545.8,307.3 545.1,305.7C544.9,305.2 543.5,303.3 541.9,301.5C540.3,299.7 539.0,297.5 539.0,296.6C539.0,295.7 538.5,295.0 538.0,295.0C537.5,295.0 537.0,293.6 537.0,292.0C537.0,290.4 536.5,289.0 536.0,289.0C535.5,289.0 535.0,287.7 535.0,286.2C535.0,284.7 534.6,283.0 534.1,282.4C533.5,281.9 532.9,275.9 532.6,269.0C531.7,249.2 531.7,244.7 532.5,241.6L533.3,238.7L530.2,240.8C528.6,242.0 526.7,243.0 526.1,243.0C525.5,243.0 525.0,243.4 525.0,244.0C525.0,244.6 524.1,245.0 523.0,245.0C521.9,245.0 521.0,245.4 521.0,246.0C521.0,246.6 520.3,247.0 519.5,247.0C518.7,247.0 517.2,247.4 516.2,247.8C510.7,250.5 508.4,252.0 507.9,253.2C507.6,253.9 506.8,255.5 506.2,256.7C505.5,258.0 505.0,260.3 505.0,262.0C505.0,263.6 504.6,265.0 504.0,265.0C503.4,265.0 503.0,265.9 503.0,267.0C503.0,268.1 502.6,269.0 502.0,269.0C501.4,269.0 501.0,269.6 501.0,270.4C501.0,272.2 496.1,281.5 491.9,287.7C485.5,297.2 473.5,307.9 465.0,311.7C459.0,314.3 456.8,315.0 454.5,315.0C453.2,315.0 451.8,315.4 451.5,316.0C451.1,316.6 445.2,317.0 437.0,317.0C428.8,317.0 422.9,316.6 422.5,316.0C422.2,315.4 421.1,315.0 420.1,315.0C415.4,315.0 401.0,304.8 401.0,301.5C401.0,300.8 400.1,299.5 399.0,298.5C397.9,297.5 397.0,295.7 397.0,294.4C397.0,293.1 396.5,291.8 396.0,291.5C395.4,291.2 395.0,289.9 395.0,288.6C395.0,287.4 394.6,286.0 394.1,285.4C392.4,283.6 391.7,275.3 391.7,254.0C391.6,239.7 392.0,231.0 392.9,228.0C393.6,225.5 394.4,222.2 394.7,220.5C395.0,218.8 395.8,217.2 396.4,216.8C398.3,215.5 396.0,214.6 393.7,215.8C392.5,216.4 389.6,217.1 387.2,217.4C375.5,219.0 374.4,219.3 372.8,221.3C371.8,222.5 371.0,225.2 371.0,227.2C371.0,229.2 370.6,231.2 370.0,231.5C369.5,231.8 369.0,233.4 369.0,235.0C369.0,236.6 368.6,238.2 368.0,238.5C367.5,238.8 367.0,240.2 367.0,241.5C367.0,242.8 366.5,244.2 366.0,244.5C365.4,244.8 365.0,246.0 365.0,247.1C365.0,248.1 364.6,249.0 364.0,249.0C363.4,249.0 363.0,249.8 363.0,250.8C363.0,251.7 362.1,253.6 361.0,255.0C359.9,256.4 359.0,258.1 359.0,258.8C359.0,259.5 357.6,262.1 356.0,264.5C354.3,266.9 353.0,269.3 353.0,269.8C353.0,270.3 352.1,271.5 351.0,272.5C349.9,273.5 349.0,274.8 349.0,275.5C349.0,276.2 348.1,277.5 347.0,278.5C345.9,279.5 345.0,280.8 345.0,281.4C344.9,283.0 332.7,295.6 324.9,302.1C319.1,307.1 313.7,310.2 304.7,313.9C303.1,314.5 296.5,315.0 289.5,315.0C278.5,315.0 276.5,314.7 271.8,312.6C268.9,311.2 265.3,308.9 263.8,307.3C260.6,303.9 255.0,293.5 255.0,290.9C255.0,289.9 254.6,289.0 254.0,289.0C253.4,289.0 253.0,287.7 253.0,286.1C253.0,284.4 252.6,282.8 252.0,282.5C251.5,282.2 251.0,279.5 251.0,276.6C251.0,273.8 250.5,270.9 249.9,270.3C248.7,269.1 249.4,227.2 250.8,216.0C251.4,211.9 252.1,206.0 252.5,203.0C252.8,200.0 253.5,196.6 254.0,195.5C254.5,194.4 255.1,191.6 255.4,189.2C256.7,179.6 257.3,177.0 258.1,176.4C258.6,176.1 259.0,173.9 259.0,171.4C259.0,169.0 259.4,167.0 259.9,167.0C260.7,167.0 261.3,164.7 262.6,155.7C263.0,153.7 263.6,151.7 264.1,151.4C264.6,151.1 265.0,149.6 265.0,148.0C265.0,146.4 265.5,144.8 266.0,144.5C266.6,144.2 267.0,142.6 267.0,141.0C267.0,139.4 267.4,137.8 268.0,137.5C268.6,137.2 269.0,135.8 269.0,134.5C269.0,133.2 269.4,131.8 270.0,131.5C270.6,131.2 271.0,129.8 271.0,128.5C271.0,127.2 271.5,125.8 272.0,125.5C272.6,125.2 273.0,123.8 273.0,122.4C273.0,121.1 273.5,119.1 274.0,118.0C274.6,116.9 275.4,115.1 276.0,114.0C276.6,112.9 277.0,110.9 277.0,109.5C277.0,108.1 277.4,107.0 278.0,107.0C278.6,107.0 279.0,106.1 279.0,105.0C279.0,103.9 279.4,103.0 280.0,103.0C280.6,103.0 281.0,101.7 281.0,100.1C281.0,98.4 281.5,96.8 282.0,96.5C282.6,96.2 283.0,95.1 283.0,94.1C283.0,93.2 283.9,90.5 285.0,88.2C286.1,86.0 287.0,83.6 287.0,83.0C287.0,82.5 287.4,81.2 287.9,80.2C288.4,79.3 289.2,77.4 289.8,76.0C295.0,62.8 302.3,49.0 305.9,45.6C309.8,42.0 315.7,39.0 319.0,39.0C320.6,39.0 322.2,38.6 322.5,38.0C323.3,36.7 337.0,36.7 337.0,38.0C337.0,38.5 337.9,39.0 339.0,39.0C340.9,39.0 341.0,39.7 341.0,57.3C341.0,67.4 340.6,76.0 340.1,76.5C339.6,77.1 338.9,79.3 338.6,81.5C338.3,83.7 337.8,87.4 337.4,89.8C337.1,92.1 336.4,94.3 335.9,94.6C335.4,94.9 335.0,96.6 335.0,98.5C335.0,100.4 334.5,102.2 334.0,102.5C333.4,102.8 333.0,104.4 333.0,106.1C333.0,107.7 332.6,109.0 332.0,109.0C331.4,109.0 331.0,110.8 331.0,112.9C331.0,115.1 330.6,117.2 330.0,117.5C329.5,117.8 329.0,119.2 329.0,120.6C329.0,121.9 328.6,123.0 328.0,123.0C327.4,123.0 327.0,124.5 327.0,126.3C327.0,128.1 326.6,130.0 326.2,130.5C325.7,131.1 324.8,133.5 324.1,136.0C323.4,138.5 322.4,141.3 321.9,142.2C321.4,143.2 321.0,144.7 321.0,145.5C321.0,146.3 320.6,147.9 320.0,149.0C319.5,150.1 318.6,151.9 318.0,153.0C317.5,154.1 317.0,155.7 317.0,156.5C317.0,157.4 316.1,160.0 315.0,162.2C313.9,164.5 313.0,167.0 313.0,167.7C313.0,168.4 312.1,170.5 311.0,172.5C309.9,174.5 309.0,176.7 309.0,177.5C309.0,178.3 308.1,180.5 307.0,182.5C305.9,184.5 305.0,186.7 305.0,187.5C305.0,188.3 304.6,189.0 304.0,189.0C303.4,189.0 303.0,189.7 303.0,190.5C303.0,191.3 301.2,195.7 299.1,200.2C297.0,204.8 294.6,210.0 293.9,211.8C293.1,213.5 292.2,215.0 291.8,215.0C291.3,215.0 291.0,215.8 291.0,216.8C291.0,217.7 290.1,219.6 289.0,221.0C287.9,222.4 287.0,224.3 287.0,225.2C287.0,226.2 286.6,227.0 286.0,227.0C285.4,227.0 285.0,227.9 285.0,229.0C285.0,230.1 284.6,231.0 284.0,231.0C283.4,231.0 283.0,231.9 283.0,233.0C283.0,234.1 282.6,235.0 282.0,235.0C281.4,235.0 281.0,242.0 281.0,254.0C281.0,266.0 281.4,273.0 282.0,273.0C282.6,273.0 283.0,274.0 283.1,275.2C283.2,278.4 286.2,283.3 288.8,284.5C290.0,285.0 291.0,285.8 291.0,286.2C291.0,286.7 291.9,287.0 293.0,287.0C294.1,287.0 295.0,286.6 295.0,286.0C295.0,285.4 296.0,285.0 297.3,285.0C299.6,285.0 315.0,270.6 315.0,268.4C315.0,267.8 315.9,266.5 317.0,265.5C318.1,264.5 319.0,263.3 319.0,262.8C319.0,262.2 319.9,260.7 321.0,259.3C322.1,257.9 323.0,256.1 323.0,255.3C323.0,254.5 323.9,253.0 325.0,251.8C326.1,250.6 327.0,248.6 327.0,247.3C327.0,246.0 327.4,245.0 328.0,245.0C328.6,245.0 329.0,244.1 329.0,243.1C329.0,242.0 329.5,240.8 330.0,240.5C330.6,240.2 331.0,238.8 331.0,237.4C331.0,236.1 331.4,235.0 332.0,235.0C332.6,235.0 333.0,233.7 333.0,232.1C333.0,230.4 333.4,228.8 334.0,228.5C334.5,228.2 335.0,226.6 335.0,225.0C335.0,223.4 335.4,221.8 336.0,221.5C338.1,220.2 336.9,217.2 333.6,215.6C331.8,214.8 329.7,213.4 329.0,212.5C328.3,211.7 327.2,211.0 326.6,211.0C326.0,211.0 324.9,209.5 324.2,207.8C323.5,206.0 322.4,203.7 321.9,202.8C320.7,200.4 320.7,189.3 322.0,188.5C322.6,188.2 323.0,186.9 323.0,185.6C323.0,184.3 323.9,182.5 325.0,181.5C326.1,180.5 327.0,179.2 327.0,178.7C327.0,177.1 331.9,173.4 338.3,170.1C343.2,167.5 345.5,167.0 351.0,167.0C359.4,167.0 363.2,168.8 366.0,174.1C368.6,179.2 371.0,185.9 371.0,188.3C371.0,189.2 371.5,190.8 372.1,191.9C373.1,193.4 374.3,193.6 380.9,193.2C385.1,193.0 388.9,192.4 389.5,191.9C390.0,191.4 391.9,191.0 393.6,191.0C395.4,191.0 397.2,190.6 397.5,190.0C397.8,189.5 399.6,189.0 401.5,189.0C403.4,189.0 405.2,188.6 405.5,188.0C405.8,187.5 406.9,187.0 407.9,187.0C409.5,187.0 419.0,174.4 419.0,172.2C419.0,168.8 437.3,157.0 442.7,157.0C444.0,157.0 445.0,156.6 445.0,156.1C445.0,154.5 466.5,152.3 467.4,153.9C467.8,154.5 469.4,155.0 471.0,155.0C472.6,155.0 474.2,155.5 474.5,156.0C474.8,156.6 476.4,157.0 478.0,157.0C479.6,157.0 481.2,157.5 481.5,158.0C481.9,158.6 484.1,160.0 486.5,161.1C491.2,163.3 501.7,173.7 504.0,178.5C504.8,180.2 506.2,182.7 507.2,184.2C508.2,185.6 509.0,187.8 509.0,188.9C509.0,190.1 509.4,191.0 509.9,191.0C511.1,191.0 512.0,197.3 512.6,210.3L513.2,221.0L516.0,219.0C517.5,217.9 519.4,217.0 520.2,217.0C520.9,217.0 522.6,216.1 524.0,215.0C525.4,213.9 527.0,213.0 527.7,213.0C528.3,213.0 529.0,212.6 529.2,212.2C529.4,211.8 532.1,210.2 535.2,208.6C538.4,207.1 541.0,205.2 541.0,204.4C541.0,203.6 541.5,203.0 542.0,203.0C542.5,203.0 543.0,202.4 543.0,201.7C543.0,199.9 545.4,195.0 546.2,195.0C546.7,195.0 547.0,194.1 547.0,193.0C547.0,191.9 547.9,190.5 549.0,189.8C550.1,189.1 551.0,187.9 551.0,187.1C551.0,186.3 551.9,184.7 552.9,183.6C553.9,182.4 555.7,179.9 556.8,177.8C560.9,170.6 563.4,167.3 566.8,164.9C573.6,160.2 575.5,159.1 577.2,159.1C578.2,159.0 579.0,158.6 579.0,158.0C579.0,157.4 580.3,157.0 581.8,157.0C583.3,157.0 585.0,156.6 585.5,156.1C587.5,154.3 606.8,152.4 608.3,153.9C608.9,154.5 610.6,155.0 612.1,155.0C613.6,155.0 615.2,155.5 615.5,156.0C615.8,156.6 616.9,157.0 617.9,157.0C620.5,157.0 629.4,161.7 632.0,164.5C633.3,165.9 634.8,167.0 635.4,167.0C638.4,167.2 651.0,187.7 651.0,192.4C651.0,193.8 651.5,195.2 652.0,195.5C652.6,195.9 653.0,201.3 653.0,208.5L653.0,220.8L663.6,215.5C669.4,212.6 674.9,209.5 675.9,208.6C676.9,207.7 678.1,207.0 678.6,207.0C679.2,207.0 680.5,206.2 681.6,205.2C682.6,204.3 684.8,202.8 686.4,202.0C691.3,199.5 695.0,195.1 695.0,192.0C695.0,190.4 695.5,188.8 696.0,188.5C696.5,188.2 697.0,186.1 697.0,184.0C697.0,181.9 697.4,179.9 697.9,179.6C698.4,179.3 699.1,177.2 699.4,175.0C699.7,172.8 700.3,169.2 700.6,167.0C700.9,164.8 701.6,163.0 702.1,163.0C702.6,163.0 703.0,161.0 703.0,158.6C703.0,156.1 703.5,153.8 704.0,153.5C704.5,153.2 705.0,151.6 705.0,150.1C705.0,148.6 705.4,147.0 705.9,146.4C706.4,145.9 707.0,143.5 707.3,141.0C707.9,135.5 708.9,131.1 710.0,128.5C710.5,127.4 711.1,124.7 711.4,122.5C711.6,120.3 712.4,116.2 713.0,113.5C716.5,97.7 718.0,85.3 718.6,65.6C719.2,49.3 719.8,47.0 723.4,47.0C724.3,47.0 726.0,46.5 727.3,45.8C728.5,45.2 730.3,44.3 731.2,43.8C732.2,43.4 736.3,43.0 740.4,43.0C744.5,43.0 748.2,42.6 748.5,42.0C749.3,40.7 755.7,40.7 756.5,42.0C756.8,42.5 758.4,43.0 759.9,43.0C764.7,43.0 765.2,44.6 764.7,59.2C764.2,73.2 763.4,79.7 761.9,80.6C761.4,80.9 761.0,82.6 761.0,84.3C761.0,87.5 759.0,94.4 757.7,95.6C757.3,96.0 757.0,97.5 757.0,98.8C757.0,101.4 755.4,107.2 753.9,110.2C753.4,111.2 753.0,112.9 753.0,114.0C753.0,115.1 752.6,116.8 752.1,117.8C751.6,118.7 750.6,121.6 749.8,124.2C749.1,126.9 748.2,129.0 747.8,129.0C747.4,129.0 747.0,130.5 747.0,132.4C747.0,134.3 746.5,136.2 746.0,136.5C745.5,136.8 745.0,138.0 745.0,139.1C745.0,140.1 744.5,141.0 744.0,141.0C743.5,141.0 743.0,142.4 743.0,144.0C743.0,145.7 742.5,147.9 742.0,149.0C741.5,150.1 740.5,151.9 740.0,153.0C739.5,154.1 739.0,155.9 739.0,156.9C739.0,158.0 738.5,159.2 738.0,159.5C737.5,159.8 737.0,161.2 737.0,162.5C737.0,163.8 736.5,165.2 736.0,165.5C735.5,165.8 735.0,167.2 735.0,168.6C735.0,169.9 734.5,171.0 734.0,171.0C733.5,171.0 733.0,172.1 733.0,173.5C733.0,174.9 732.5,176.9 732.0,178.0C731.5,179.1 730.5,180.9 730.0,182.0C728.0,185.9 729.1,185.2 738.2,176.4C743.3,171.5 749.1,166.7 751.1,165.7C753.1,164.8 755.3,163.4 756.0,162.5C756.7,161.7 757.9,161.0 758.6,161.0C759.3,161.0 761.5,160.1 763.5,159.0C765.5,157.9 767.7,157.0 768.5,157.0C769.4,157.0 770.8,156.6 771.8,156.1C776.7,153.4 791.2,152.0 792.5,154.0C792.8,154.5 794.3,155.0 795.7,155.0C799.6,155.0 804.8,159.5 807.1,164.8C808.2,167.4 809.6,170.3 810.1,171.2C811.3,173.6 811.3,191.7 810.0,192.5C809.5,192.8 809.0,194.2 809.0,195.5C809.0,196.8 808.5,198.2 808.0,198.5C807.5,198.8 807.0,199.8 807.0,200.6C807.0,204.5 790.4,225.0 787.2,225.0C786.7,225.0 785.5,225.9 784.5,227.0C783.5,228.1 782.1,229.0 781.3,229.0C779.3,229.0 779.7,230.4 782.5,233.0C783.9,234.3 785.0,236.1 785.0,237.0C785.0,237.9 785.5,239.1 786.1,239.7C788.0,241.6 786.0,269.0 783.9,269.0C783.4,269.0 783.0,270.3 783.0,271.9C783.0,273.6 782.5,275.2 782.0,275.5C780.3,276.6 780.8,283.5 782.8,285.3C784.8,287.2 789.0,287.6 789.0,286.0C789.0,285.4 789.8,285.0 790.9,285.0C795.4,285.0 805.6,277.2 818.0,264.3C830.5,251.4 830.7,251.0 831.4,245.4C832.5,235.8 833.2,232.0 834.1,231.4C834.6,231.1 835.0,229.4 835.0,227.5C835.0,225.6 835.5,223.8 836.0,223.5C836.5,223.2 837.0,222.0 837.0,220.9C837.0,219.9 837.5,219.0 838.0,219.0C838.5,219.0 839.0,218.4 839.0,217.6C839.0,215.9 843.2,207.6 844.2,207.2C844.7,207.0 845.0,206.2 845.0,205.4C845.0,202.9 852.0,191.7 858.9,183.1C864.6,176.1 873.4,167.0 874.6,167.0C875.1,167.0 876.9,165.6 878.5,164.0C880.1,162.3 881.9,161.0 882.6,161.0C883.2,161.0 884.3,160.3 885.0,159.5C886.7,157.4 898.9,151.8 904.5,150.4C910.5,149.0 928.2,148.8 932.6,150.2C935.0,150.9 937.0,151.8 937.0,152.2C937.0,152.6 937.6,153.0 938.4,153.0C940.4,153.0 947.0,161.2 947.0,163.7C947.0,164.7 947.5,166.1 948.1,166.7C949.8,168.4 947.9,190.3 945.9,191.6C945.4,191.9 945.0,193.2 945.0,194.6C945.0,195.9 944.5,197.0 944.0,197.0C943.5,197.0 943.0,197.8 943.0,198.8C943.0,199.9 942.1,201.5 941.0,202.5C939.9,203.5 939.0,204.7 939.0,205.1C939.0,208.3 922.9,225.6 913.5,232.6C911.3,234.2 909.3,235.7 909.0,236.1C908.7,236.4 905.6,238.6 902.0,241.0C898.4,243.4 895.3,245.6 895.0,245.9C894.7,246.2 893.3,247.1 891.8,247.9C890.2,248.7 889.0,249.7 889.0,250.2C889.0,250.6 888.5,251.0 887.9,251.0C887.3,251.0 883.3,253.6 878.9,256.7C872.4,261.5 871.0,262.9 871.0,265.2C871.0,266.7 871.5,268.2 872.0,268.5C872.5,268.8 873.0,270.0 873.0,271.1C873.0,272.1 873.5,273.0 874.0,273.0C874.5,273.0 875.0,273.7 875.0,274.4C875.0,276.2 884.0,284.9 885.8,285.0C887.0,285.0 888.2,285.5 892.7,287.8C895.5,289.3 902.7,289.4 903.5,288.0C903.8,287.4 905.2,287.0 906.5,287.0C907.8,287.0 909.2,286.6 909.5,286.0C909.8,285.4 911.2,285.0 912.6,285.0C913.9,285.0 915.0,284.7 915.0,284.2C915.0,283.8 916.5,282.9 918.2,282.1C931.0,276.5 963.0,250.3 963.0,245.3C963.0,244.1 963.5,242.8 964.0,242.5C964.5,242.2 965.0,240.6 965.0,239.0C965.0,237.4 965.5,235.8 966.0,235.5C966.5,235.2 967.0,233.3 967.0,231.4C967.0,229.5 967.4,227.2 967.9,226.2C969.4,223.3 971.0,217.5 971.0,215.2C971.0,214.0 971.5,213.0 972.0,213.0C972.5,213.0 973.0,211.7 973.0,210.1C973.0,208.4 973.5,206.8 974.0,206.5C974.5,206.2 975.0,204.8 975.0,203.4C975.0,202.1 975.5,201.0 976.0,201.0C976.5,201.0 977.0,199.4 977.0,197.5C977.0,195.6 977.4,193.2 977.9,192.2C981.1,185.8 981.7,180.0 979.4,176.5C978.5,175.1 978.0,172.6 978.2,170.0C978.5,165.7 979.2,165.0 986.0,162.2C991.8,159.7 1008.6,158.2 1010.3,159.9C1010.9,160.5 1012.6,161.0 1014.1,161.0C1016.1,161.0 1017.7,162.1 1019.9,164.7C1022.8,168.2 1023.0,169.0 1023.0,176.2C1023.0,180.4 1022.5,184.2 1022.0,184.5C1021.5,184.8 1021.0,187.1 1021.0,189.5C1021.0,191.9 1020.5,194.2 1020.0,194.5C1019.5,194.8 1019.0,196.2 1019.0,197.5C1019.0,198.8 1018.5,200.2 1018.0,200.5C1017.5,200.8 1017.0,202.2 1017.0,203.6C1017.0,204.9 1016.5,206.9 1016.0,208.0C1015.5,209.1 1014.5,210.9 1014.0,212.0C1013.5,213.1 1013.0,215.1 1013.0,216.5C1013.0,217.9 1012.5,219.0 1012.0,219.0C1011.5,219.0 1011.0,220.1 1011.0,221.4C1011.0,222.8 1010.5,224.2 1010.0,224.5C1009.5,224.8 1009.0,226.2 1009.0,227.5C1009.0,228.8 1008.5,230.2 1008.0,230.5C1007.5,230.8 1007.0,232.2 1007.0,233.5C1007.0,234.8 1006.5,236.2 1006.0,236.5C1005.5,236.8 1005.0,238.0 1005.0,239.1C1005.0,240.1 1004.5,241.0 1004.0,241.0C1003.5,241.0 1003.0,242.0 1003.0,243.2C1003.0,245.5 1000.9,252.2 999.9,253.0C999.3,253.5 997.9,266.1 997.9,270.5C997.9,278.8 1002.1,285.0 1007.7,285.0C1011.5,285.0 1021.3,278.1 1025.8,272.3C1027.3,270.3 1030.0,267.0 1031.8,265.0C1033.5,262.9 1035.0,260.8 1035.0,260.3C1035.0,259.7 1035.9,258.5 1037.0,257.5C1038.1,256.5 1039.0,255.1 1039.0,254.3C1039.0,253.6 1039.5,253.0 1040.0,253.0C1040.5,253.0 1041.0,252.4 1041.0,251.7C1041.0,251.0 1041.9,249.4 1043.0,248.2C1044.1,247.0 1045.0,245.4 1045.0,244.7C1045.0,243.9 1045.7,242.7 1046.5,242.0C1047.3,241.3 1049.2,238.3 1050.7,235.1C1052.2,232.0 1053.8,229.3 1054.2,229.2C1054.6,229.0 1055.0,228.3 1055.0,227.6C1055.0,225.8 1057.4,221.0 1058.2,221.0C1058.7,221.0 1059.0,219.7 1059.0,218.0C1059.0,216.3 1059.5,215.0 1060.0,215.0C1060.5,215.0 1061.0,214.1 1061.0,213.1C1061.0,212.0 1061.5,210.8 1062.0,210.5C1062.5,210.2 1063.0,208.6 1063.0,207.1C1063.0,205.6 1063.4,204.0 1063.9,203.4C1064.8,202.5 1065.6,197.7 1066.6,186.7C1067.1,181.6 1066.9,180.5 1065.0,178.5C1063.3,176.7 1062.9,175.3 1063.2,171.4C1063.5,166.8 1063.7,166.5 1068.5,163.9C1071.2,162.3 1074.5,161.1 1075.7,161.0C1076.9,161.0 1078.2,160.5 1078.5,160.0C1079.3,158.7 1101.0,158.7 1101.0,159.9C1101.0,160.4 1102.0,161.0 1103.2,161.2C1107.3,161.8 1108.8,166.5 1108.9,178.2C1109.0,184.3 1108.6,189.1 1108.0,189.5C1107.5,189.8 1107.0,191.6 1107.0,193.5C1107.0,195.4 1106.5,197.2 1106.0,197.5C1105.5,197.8 1105.0,199.2 1105.0,200.5C1105.0,201.8 1104.5,203.2 1104.0,203.5C1103.5,203.8 1103.0,205.2 1103.0,206.5C1103.0,207.8 1102.5,209.2 1102.0,209.5C1101.5,209.8 1101.0,211.2 1101.0,212.6C1101.0,213.9 1100.5,215.0 1100.0,215.0C1099.5,215.0 1099.0,216.5 1099.0,218.4C1099.0,220.3 1098.5,222.2 1098.0,222.5C1097.5,222.8 1097.0,224.0 1097.0,225.1C1097.0,226.1 1096.5,227.0 1096.0,227.0C1095.5,227.0 1095.0,228.8 1095.0,231.0C1095.0,233.2 1094.5,235.0 1094.0,235.0C1093.5,235.0 1093.0,236.1 1093.0,237.4C1093.0,238.8 1092.5,240.2 1092.0,240.5C1091.5,240.8 1091.0,242.4 1091.0,244.0C1091.0,245.6 1090.5,247.2 1090.0,247.5C1089.5,247.8 1089.0,249.4 1089.0,251.0C1089.0,252.6 1088.5,254.2 1088.0,254.5C1087.5,254.8 1087.0,256.4 1087.0,258.0C1087.0,259.6 1086.5,261.2 1086.0,261.5C1085.5,261.8 1085.0,263.6 1085.0,265.5C1085.0,267.4 1084.5,269.2 1084.0,269.5C1083.5,269.8 1083.0,271.7 1083.0,273.6C1083.0,275.5 1082.6,277.0 1082.1,277.0C1081.6,277.0 1080.9,279.1 1080.6,281.8C1079.7,289.7 1078.8,294.0 1077.9,294.6C1077.4,294.9 1077.0,297.1 1077.0,299.5C1077.0,301.9 1076.5,304.2 1076.0,304.5C1075.5,304.8 1075.0,306.6 1075.0,308.5C1075.0,310.4 1074.5,312.2 1074.0,312.5C1073.5,312.8 1073.0,314.9 1073.0,317.1C1073.0,319.2 1072.6,321.0 1072.1,321.0C1071.6,321.0 1070.9,323.1 1070.6,325.8C1069.7,333.7 1068.8,338.0 1067.9,338.6C1067.4,338.9 1067.0,341.3 1067.0,344.0C1067.0,346.7 1066.5,349.2 1066.0,349.5C1065.5,349.8 1065.0,351.4 1065.0,353.0C1065.0,354.6 1064.5,356.2 1064.0,356.5C1063.5,356.8 1063.0,359.3 1063.0,362.0C1063.0,364.7 1062.5,367.2 1062.0,367.5C1061.5,367.8 1061.0,369.6 1061.0,371.5C1061.0,373.4 1060.5,375.2 1060.0,375.5C1059.5,375.8 1059.0,378.3 1059.0,381.0C1059.0,383.7 1058.5,386.2 1058.0,386.5C1057.5,386.8 1057.0,389.1 1057.0,391.5C1057.0,393.9 1056.5,396.2 1056.0,396.5C1055.5,396.8 1055.0,398.9 1055.0,401.0C1055.0,403.1 1054.5,405.2 1054.0,405.5C1053.5,405.8 1053.0,408.3 1053.0,411.0C1053.0,413.7 1052.5,416.2 1052.0,416.5C1051.5,416.8 1051.0,418.9 1051.0,421.1C1051.0,423.2 1050.6,425.0 1050.1,425.0C1049.6,425.0 1048.9,427.6 1048.6,430.8C1047.8,440.0 1046.9,445.0 1045.9,445.6C1045.4,445.9 1045.0,448.5 1045.0,451.5C1045.0,454.5 1044.5,457.2 1044.0,457.5C1043.5,457.8 1043.0,458.9 1043.0,459.8C1043.0,460.7 1041.9,462.7 1040.6,464.2C1038.3,466.9 1038.0,467.0 1027.6,467.0C1021.8,467.0 1017.0,466.6 1017.0,466.1ZM61.5,378.0C60.4,377.5 57.6,377.1 55.3,377.1C53.0,377.0 50.8,376.6 50.5,376.0C50.2,375.4 48.9,375.0 47.7,375.0C45.3,375.0 38.4,372.8 37.4,371.7C37.0,371.3 35.6,371.0 34.3,371.0C33.0,371.0 31.0,370.1 29.8,369.0C28.6,367.9 27.1,367.0 26.6,367.0C26.0,367.0 24.5,365.4 23.3,363.5C21.2,360.4 21.0,358.8 21.0,348.5C21.0,341.5 21.4,337.0 22.0,337.0C22.6,337.0 23.0,335.7 23.0,334.1C23.0,332.4 23.4,330.8 24.0,330.5C24.6,330.2 25.0,328.4 25.0,326.5C25.0,324.6 25.5,322.8 26.0,322.5C26.6,322.2 27.0,320.9 27.0,319.8C27.0,317.5 28.7,311.7 30.1,308.8C30.6,307.8 31.0,305.7 31.0,304.1C31.0,302.4 31.5,300.8 32.0,300.5C32.6,300.2 33.0,298.8 33.0,297.4C33.0,296.1 33.5,295.0 34.0,295.0C34.5,295.0 35.0,293.5 35.0,291.8C35.0,288.5 37.0,281.7 38.3,280.4C38.7,280.0 39.0,278.2 39.0,276.4C39.0,274.6 39.5,272.8 40.0,272.5C40.5,272.2 41.0,270.6 41.0,269.0C41.0,267.4 41.4,265.9 41.9,265.6C42.4,265.3 43.1,263.3 43.4,261.3C45.0,252.2 45.3,251.0 46.1,250.4C46.6,250.1 47.0,248.8 47.0,247.5C47.0,246.2 47.5,244.8 48.0,244.5C48.6,244.2 49.0,242.4 49.0,240.5C49.0,238.6 49.5,236.8 50.0,236.5C50.5,236.2 51.0,234.8 51.0,233.5C51.0,232.2 51.5,230.8 52.0,230.5C52.6,230.2 53.0,228.7 53.0,227.2C53.0,225.7 53.9,222.0 55.0,219.0C56.1,216.0 57.0,212.5 57.0,211.3C57.0,210.1 57.4,208.9 57.9,208.6C58.4,208.3 59.0,206.6 59.3,204.8C59.6,203.0 60.3,199.7 61.0,197.5C61.7,195.3 62.4,192.0 62.7,190.2C63.0,188.4 63.6,186.7 64.1,186.4C64.6,186.1 65.0,184.8 65.0,183.5C65.0,182.2 65.5,180.8 66.0,180.5C66.5,180.2 67.0,178.7 67.0,177.2C67.0,174.4 69.1,167.6 70.3,166.4C70.7,166.0 71.0,164.5 71.0,163.2C71.0,160.8 72.2,156.2 74.1,151.5C74.9,149.3 75.8,145.4 76.7,140.2C77.0,138.4 77.6,136.7 78.1,136.4C78.6,136.1 79.0,134.8 79.0,133.5C79.0,132.2 79.5,130.8 80.0,130.5C80.6,130.2 81.0,128.6 81.0,126.9C81.0,125.3 81.4,123.2 81.9,122.2C83.2,119.6 85.0,113.6 85.0,111.7C85.0,110.7 85.4,109.2 85.9,108.2C87.3,105.3 89.0,99.5 89.0,97.2C89.0,96.1 89.4,94.9 89.9,94.6C90.9,93.9 91.9,87.0 91.0,87.0C90.7,87.0 88.2,89.2 85.5,92.0L80.6,97.0L72.0,97.0C64.3,97.0 63.1,96.8 61.2,94.7C60.0,93.4 59.0,91.6 59.0,90.7C59.0,89.8 58.5,88.8 58.0,88.5C57.4,88.1 57.0,82.9 57.0,76.1C57.0,62.7 58.2,59.0 63.3,56.3C65.1,55.5 66.7,54.4 67.0,54.1C67.9,53.0 80.2,47.0 81.6,47.0C82.4,47.0 83.0,46.5 83.0,46.0C83.0,45.5 83.7,45.0 84.5,45.0C85.3,45.0 86.8,44.6 87.8,44.1C88.7,43.6 90.6,42.8 92.0,42.3C104.7,37.3 107.0,36.0 107.0,34.0C107.0,32.0 108.8,29.3 112.6,25.6C115.6,22.7 123.3,20.6 127.8,21.5C129.8,21.9 132.8,22.4 134.5,22.7C137.4,23.1 140.5,24.2 144.2,26.1C145.2,26.6 154.5,27.0 164.9,27.0C176.5,27.0 184.1,27.4 184.5,28.0C184.8,28.6 187.5,29.0 190.5,29.0C193.5,29.0 196.2,29.4 196.5,30.0C196.8,30.6 198.2,31.0 199.5,31.0C200.8,31.0 202.2,31.4 202.5,32.0C202.8,32.5 204.4,33.0 206.1,33.0C207.7,33.0 209.0,33.5 209.0,34.0C209.0,34.5 209.9,35.0 211.0,35.0C212.1,35.0 213.0,35.5 213.0,36.0C213.0,36.5 213.7,37.0 214.6,37.0C217.7,37.0 235.0,50.2 235.0,52.7C235.0,53.2 235.8,54.4 236.9,55.4C239.2,57.5 243.8,66.9 245.5,73.0C246.8,77.8 248.2,87.5 248.2,92.5C248.2,99.8 246.9,109.9 245.9,110.6C245.4,110.9 245.0,112.9 245.0,115.1C245.0,117.2 244.6,119.0 244.0,119.0C243.4,119.0 243.0,119.9 243.0,121.0C243.0,122.1 242.6,123.8 242.1,124.8C241.6,125.7 240.4,128.3 239.5,130.5C236.1,138.5 231.0,147.9 228.8,150.4C227.8,151.5 227.0,152.9 227.0,153.6C227.0,154.3 226.6,155.0 226.2,155.2C225.7,155.3 223.3,158.2 220.7,161.5C215.7,168.1 194.4,189.3 189.2,192.9C185.9,195.2 185.0,197.0 187.3,197.0C188.1,197.0 189.7,198.2 191.1,199.6C192.4,201.0 194.9,203.0 196.6,204.1C202.1,207.5 217.0,227.1 217.0,230.9C217.0,232.1 217.3,233.0 217.8,233.0C218.7,233.0 221.0,237.9 221.0,239.7C221.0,240.4 221.4,241.8 221.9,242.8C222.4,243.7 223.3,246.1 223.9,248.1C225.3,252.6 225.4,285.6 224.0,286.5C223.4,286.8 223.0,288.4 223.0,290.0C223.0,291.6 222.5,293.2 222.0,293.5C221.4,293.8 221.0,295.4 221.0,297.0C221.0,298.6 220.6,300.2 220.0,300.5C219.4,300.8 219.0,302.0 219.0,303.1C219.0,304.1 218.6,305.0 218.0,305.0C217.4,305.0 217.0,306.0 217.0,307.2C217.0,308.5 216.1,310.6 215.0,312.0C213.9,313.4 213.0,314.9 213.0,315.3C213.0,315.7 210.8,319.3 208.1,323.3C201.4,332.9 180.6,353.0 177.2,353.0C176.7,353.0 175.7,353.7 175.0,354.5C173.9,355.9 155.2,365.4 148.0,368.2C146.6,368.8 144.7,369.6 143.8,370.1C142.8,370.6 140.9,371.0 139.6,371.0C138.2,371.0 136.9,371.4 136.6,371.9C136.3,372.4 134.6,373.1 132.8,373.4C131.0,373.8 127.2,374.5 124.5,375.1C121.8,375.6 116.6,376.6 113.0,377.1C104.4,378.5 64.1,379.2 61.5,378.0ZM98.4,349.9C99.0,349.4 101.1,349.0 103.2,349.0C105.3,349.0 107.0,348.6 107.0,348.0C107.0,347.4 107.9,347.0 109.0,347.0C110.1,347.0 111.8,346.6 112.8,346.1C113.7,345.6 117.7,343.7 121.5,341.9C125.3,340.1 128.7,338.2 128.8,337.8C129.0,337.4 129.6,337.0 130.1,337.0C132.1,337.0 144.0,328.0 150.0,321.9C156.6,315.2 163.0,307.5 163.0,306.3C163.0,305.6 163.9,304.5 165.0,303.8C166.1,303.1 167.0,301.8 167.0,301.0C167.0,300.2 167.9,298.4 169.0,297.0C170.1,295.6 171.0,293.7 171.0,292.8C171.0,291.8 171.4,291.0 172.0,291.0C172.6,291.0 173.0,290.1 173.0,289.1C173.0,288.0 173.4,286.8 174.0,286.5C174.6,286.2 175.0,284.8 175.0,283.4C175.0,282.1 175.4,281.0 175.9,281.0C176.4,281.0 177.1,279.4 177.4,277.5C177.7,275.6 178.3,272.4 178.6,270.5C178.9,268.6 179.6,266.7 180.1,266.4C181.4,265.7 181.3,245.0 180.0,245.0C179.4,245.0 179.0,243.9 179.0,242.6C179.0,241.2 178.5,239.8 178.0,239.5C177.4,239.2 177.0,238.0 177.0,236.9C177.0,235.9 176.7,235.0 176.2,235.0C175.8,235.0 174.7,233.3 173.8,231.2C172.2,227.8 166.0,220.5 159.9,215.2L157.3,212.9L151.6,216.0C148.4,217.6 145.2,219.0 144.4,219.0C143.6,219.0 143.0,219.4 143.0,220.0C143.0,220.6 141.7,221.0 140.0,221.0C138.3,221.0 137.0,221.4 137.0,221.8C137.0,222.2 134.9,223.1 132.2,223.8C129.6,224.6 126.7,225.6 125.8,226.1C123.4,227.3 105.3,227.3 104.5,226.0C104.2,225.4 103.1,225.0 102.1,225.0C101.1,225.0 99.5,224.1 98.5,223.0C96.2,220.5 95.0,220.5 95.0,222.9C95.0,224.0 94.6,225.2 94.0,225.5C93.5,225.8 93.0,227.9 93.0,230.0C93.0,232.1 92.5,234.2 92.0,234.5C91.5,234.8 91.0,236.4 91.0,238.0C91.0,239.6 90.5,241.2 90.0,241.5C89.5,241.8 89.0,244.3 89.0,247.0C89.0,249.7 88.5,252.2 88.0,252.5C87.5,252.8 87.0,254.4 87.0,256.1C87.0,257.7 86.5,259.0 86.0,259.0C85.5,259.0 85.0,261.2 85.0,264.0C85.0,266.8 84.5,269.0 84.0,269.0C83.5,269.0 83.0,270.8 83.0,272.9C83.0,275.1 82.5,277.2 82.0,277.5C81.5,277.8 81.0,279.8 81.0,281.9C81.0,283.9 80.6,286.0 80.1,286.6C79.6,287.1 78.9,289.5 78.6,292.0C77.4,302.1 76.7,305.0 75.9,305.0C75.4,305.0 75.0,307.2 75.0,309.9C75.0,312.7 74.6,315.1 74.1,315.4C73.2,316.0 72.7,318.7 71.5,328.0C71.1,330.5 70.5,333.4 70.0,334.5C69.5,335.6 68.9,337.9 68.6,339.5C68.3,341.1 67.8,344.0 67.4,345.8C66.8,348.7 67.0,349.0 69.2,349.0C70.5,349.0 72.0,349.4 72.5,349.9C74.6,351.9 96.3,351.9 98.4,349.9ZM443.5,287.0C445.5,285.9 447.6,285.0 448.3,285.0C449.7,285.0 457.6,277.0 460.7,272.5C463.1,269.0 467.0,262.1 467.0,261.5C467.0,261.2 464.4,261.0 461.3,261.0C450.2,261.0 440.6,256.5 431.7,247.1C425.2,240.2 425.0,240.1 425.0,242.9C425.0,244.6 424.6,246.2 424.0,246.5C423.4,246.9 423.0,251.8 423.0,258.1C423.0,264.1 423.4,269.9 424.0,271.0C424.6,272.1 425.4,273.9 426.0,275.0C426.6,276.1 427.0,277.6 427.0,278.5C427.0,280.2 433.9,286.9 435.8,287.0C436.4,287.0 437.0,287.4 437.0,288.0C437.0,289.6 439.6,289.2 443.5,287.0ZM585.2,286.6C588.5,285.1 592.8,281.7 596.5,277.8C602.2,271.9 603.5,270.1 606.7,264.0L608.0,261.5L601.2,260.8C592.7,260.0 588.1,259.0 587.4,257.9C587.1,257.4 586.1,257.0 585.1,257.0C584.1,257.0 582.5,256.1 581.5,255.0C580.5,253.9 579.2,253.0 578.6,253.0C577.1,253.0 569.5,245.1 568.7,242.8C568.0,240.8 566.5,240.4 565.5,242.0C565.2,242.5 564.9,249.7 564.9,257.9C564.9,271.0 565.1,273.2 567.0,276.4C568.1,278.4 569.0,280.6 569.0,281.3C569.0,282.4 577.6,288.8 579.2,289.0C579.6,289.0 582.3,287.9 585.2,286.6ZM477.0,229.2C477.0,228.2 477.5,226.9 478.1,226.3C479.6,224.8 479.6,197.7 478.1,197.2C477.5,197.0 477.0,196.0 477.0,195.1C477.0,192.2 474.1,187.3 470.8,184.5C465.9,180.4 459.8,182.3 450.8,190.9C448.7,192.8 447.0,195.0 447.0,195.7C447.0,196.4 446.6,197.0 446.0,197.0C445.4,197.0 445.0,199.4 445.0,202.4C445.0,205.4 445.4,208.2 446.0,208.5C446.6,208.8 447.0,210.2 447.0,211.4C447.0,221.1 458.7,230.7 470.8,230.9C476.1,231.0 477.0,230.8 477.0,229.2ZM618.8,227.0C619.0,225.1 619.6,223.1 620.1,222.6C621.3,221.3 621.3,203.3 620.0,202.5C619.5,202.2 619.0,200.6 619.0,198.9C619.0,197.3 618.6,195.2 618.1,194.2C614.2,186.3 612.9,184.3 610.8,183.3C606.3,180.8 599.3,183.8 592.0,191.2L587.0,196.3L587.0,204.5C587.0,210.0 587.5,213.7 588.6,215.9C590.7,220.1 599.8,229.0 602.1,229.0C603.1,229.0 604.2,229.5 604.5,230.0C604.9,230.7 608.0,231.0 611.8,230.8L618.5,230.5L618.8,227.0ZM890.3,215.1C902.5,205.4 913.0,191.0 913.0,184.2C913.0,180.8 909.6,178.0 906.5,178.8C904.1,179.5 889.0,193.5 889.0,195.1C889.0,195.5 887.6,197.9 886.0,200.3C884.4,202.8 883.0,205.2 883.0,205.8C883.0,206.4 882.0,208.8 880.9,211.2C879.7,213.5 878.3,216.6 877.7,218.0C877.2,219.4 876.4,221.3 875.9,222.2C875.4,223.2 875.0,224.7 875.0,225.5C875.0,226.9 879.2,224.0 890.3,215.1ZM743.8,221.0C752.2,221.0 753.9,220.7 755.8,219.0C757.0,217.9 758.3,217.0 758.7,217.0C759.6,217.0 767.0,209.4 767.0,208.5C767.0,208.2 768.2,206.7 769.6,205.0C771.1,203.4 772.8,200.9 773.6,199.5C774.9,197.0 774.7,196.6 771.8,192.9C770.1,190.8 768.4,189.0 768.0,189.0C766.1,189.0 757.4,194.2 754.0,197.4C751.8,199.4 749.7,201.0 749.3,201.0C748.2,201.0 739.2,210.3 732.1,218.8L726.8,225.1L730.4,223.0C733.4,221.4 735.8,221.0 743.8,221.0ZM105.5,186.0C105.8,185.4 107.2,185.0 108.6,185.0C109.9,185.0 111.0,184.6 111.0,184.0C111.0,183.4 112.3,183.0 113.9,183.0C115.6,183.0 117.2,182.6 117.5,182.0C117.9,181.4 124.4,181.0 133.6,181.0C149.1,181.0 149.1,181.0 153.3,178.1C160.3,173.3 173.3,158.9 180.5,148.0C182.2,145.5 183.8,143.3 184.2,143.2C184.7,143.0 185.0,142.0 185.0,140.9C185.0,139.9 185.4,139.0 185.9,139.0C186.4,139.0 187.0,138.2 187.3,137.2C187.6,136.3 188.6,134.2 189.6,132.5C192.3,127.7 193.0,126.1 193.0,124.5C193.0,123.7 193.4,123.0 194.0,123.0C194.6,123.0 195.0,121.9 195.0,120.6C195.0,119.2 195.4,117.8 196.0,117.5C196.6,117.2 197.0,115.8 197.0,114.5C197.0,113.2 197.4,111.8 198.0,111.5C198.6,111.2 199.0,109.1 199.0,107.0C199.0,104.9 199.4,102.8 200.0,102.5C201.3,101.7 201.3,80.3 200.0,79.5C199.4,79.2 199.0,77.6 199.0,75.9C199.0,74.3 198.6,73.0 198.0,73.0C197.4,73.0 197.0,72.5 197.0,71.9C197.0,67.7 181.4,55.0 176.3,55.0C174.7,55.0 172.9,54.5 172.3,53.9C170.8,52.4 147.0,54.4 147.0,56.0C147.0,56.5 146.0,57.0 144.8,57.2C142.3,57.6 139.2,62.4 139.1,66.2C139.0,67.7 138.6,69.2 138.0,69.5C137.4,69.8 137.0,71.2 137.0,72.6C137.0,73.9 136.6,75.0 136.0,75.0C135.4,75.0 135.0,76.5 135.0,78.4C135.0,80.3 134.6,82.2 134.0,82.5C133.4,82.8 133.0,84.2 133.0,85.5C133.0,86.8 132.6,88.2 132.0,88.5C131.4,88.8 131.0,90.4 131.0,92.0C131.0,93.6 130.6,95.2 130.0,95.5C129.4,95.8 129.0,97.2 129.0,98.5C129.0,99.8 128.6,101.2 128.0,101.5C127.5,101.8 127.0,103.7 127.0,105.6C127.0,107.5 126.5,109.0 126.0,109.0C125.5,109.0 125.0,110.3 125.0,111.9C125.0,113.6 124.5,115.2 124.0,115.5C123.5,115.8 123.0,117.2 123.0,118.5C123.0,119.8 122.5,121.2 122.0,121.5C121.5,121.8 121.0,123.6 121.0,125.5C121.0,127.4 120.5,129.2 120.0,129.5C119.5,129.8 119.0,131.2 119.0,132.5C119.0,133.8 118.5,135.2 118.0,135.5C117.5,135.8 117.0,137.7 117.0,139.6C117.0,141.5 116.6,143.0 116.1,143.0C115.3,143.0 114.6,145.2 113.3,152.8C113.0,154.6 112.4,156.3 111.9,156.6C111.4,156.9 111.0,158.4 111.0,160.0C111.0,161.6 110.5,163.2 110.0,163.5C109.5,163.8 109.0,165.7 109.0,167.6C109.0,169.5 108.5,171.0 108.0,171.0C107.5,171.0 107.0,172.8 107.0,174.9C107.0,177.1 106.5,179.2 106.0,179.5C105.5,179.8 105.0,181.1 105.0,182.4C105.0,183.6 104.5,185.1 103.8,185.8C102.9,186.7 102.9,187.0 103.7,187.0C104.4,187.0 105.2,186.6 105.5,186.0Z" fill="#4e3319" fill-rule="evenodd"/>
</svg>
