<svg xmlns="http://www.w3.org/2000/svg" viewBox="240.4 235.7 107.1 129.9">
<defs>
  <filter id="bold" color-interpolation-filters="sRGB" x="-25%" y="-25%" width="150%" height="150%">
    <feMorphology in="SourceAlpha" operator="dilate" radius="1.2" result="grown"/>
    <feFlood flood-color="#121110" result="ink"/>
    <feComposite in="ink" in2="grown" operator="in"/>
  </filter>
</defs>
<g filter="url(#bold)">
  <path fill="#121110" transform="matrix(.012599562,0,0,-.012599562,180.00437,412.33595)" d="M5590 13760C5590 13661 5590 13660 5614 13660 5628 13660 5642 13656 5645 13650 5648 13645 5660 13640 5670 13640 5680 13640 5690 13637 5692 13633 5694 13628 5722 13612 5754 13595 5840 13552 5936 13450 5984 13353 6005 13310 6026 13267 6031 13258 6036 13248 6040 13229 6040 13216 6040 13202 6045 13188 6050 13185 6056 13182 6060 13166 6060 13150 6060 13134 6065 13118 6070 13115 6076 13112 6080 13094 6080 13075 6080 13056 6085 13038 6090 13035 6096 13032 6100 13005 6100 12976 6100 12948 6104 12920 6109 12915 6118 12905 6120 12889 6141 12680 6147 12622 6153 12394 6156 12173L6161 11770H6739C7212 11770 7320 11772 7329 11783 7337 11793 7341 12057 7342 12716L7345 13635 8018 13638C8433 13639 8690 13637 8690 13631 8690 13626 8734 13619 8788 13617 8841 13614 8913 13607 8948 13601 9038 13585 9129 13570 9175 13564 9197 13561 9219 13554 9225 13549 9230 13544 9247 13540 9264 13540 9292 13540 9340 13528 9385 13509 9396 13504 9446 13488 9495 13471 9545 13455 9603 13434 9625 13425 9744 13372 9801 13343 9859 13309 9893 13287 9925 13270 9929 13270 9934 13270 9945 13261 9955 13250 9965 13239 9978 13230 9985 13230 9992 13230 10005 13220 10016 13209 10026 13197 10051 13177 10070 13165 10143 13119 10420 12824 10420 12793 10420 12790 10427 12778 10436 12768 10462 12740 10566 12538 10590 12470 10605 12427 10620 12390 10631 12368 10636 12358 10640 12339 10640 12326 10640 12312 10645 12298 10650 12295 10656 12292 10660 12274 10660 12255 10660 12236 10665 12218 10670 12215 10676 12212 10680 12192 10680 12171 10680 12151 10684 12130 10689 12124 10711 12102 10731 11455 10711 11415 10705 11404 10699 11373 10696 11345 10686 11252 10678 11205 10669 11196 10664 11190 10660 11171 10660 11154 10660 11136 10656 11118 10650 11115 10645 11112 10640 11100 10640 11090 10640 11079 10631 11055 10620 11035 10609 11015 10600 10991 10600 10980 10600 10970 10596 10958 10590 10955 10585 10952 10580 10941 10580 10932 10580 10912 10491 10732 10443 10655 10356 10513 10162 10313 10022 10219 9965 10181 9917 10150 9914 10150 9911 10150 9890 10137 9867 10122 9844 10107 9814 10089 9800 10083 9786 10077 9753 10062 9725 10050 9698 10038 9665 10024 9653 10019 9607 10001 9575 9987 9558 9979 9548 9974 9531 9970 9521 9970 9510 9970 9498 9966 9495 9960 9492 9955 9478 9950 9465 9950 9452 9950 9438 9946 9435 9940 9432 9935 9416 9930 9399 9930 9383 9930 9362 9926 9352 9920 9343 9915 9309 9908 9277 9905L9219 9898 9222 9757 9225 9615 9355 9603C9515 9588 9633 9569 9750 9540 9795 9529 9859 9514 9913 9503 9928 9500 9943 9494 9946 9489 9949 9484 9966 9480 9985 9480 10004 9480 10022 9476 10025 9470 10028 9465 10042 9460 10056 9460 10070 9460 10100 9451 10122 9440 10145 9429 10172 9420 10181 9420 10191 9420 10202 9416 10205 9410 10208 9405 10219 9400 10228 9400 10243 9400 10446 9305 10520 9264 10534 9256 10570 9238 10600 9223 10630 9208 10664 9188 10674 9178 10685 9168 10699 9160 10705 9160 10711 9160 10722 9151 10730 9140 10738 9129 10752 9120 10762 9120 10772 9120 10780 9116 10780 9112 10780 9108 10793 9097 10808 9088 10824 9078 10854 9055 10875 9035 10896 9016 10917 9000 10922 9000 10944 9000 11290 8654 11290 8632 11290 8627 11298 8615 11308 8604 11317 8594 11345 8556 11370 8520 11394 8484 11418 8454 11422 8452 11426 8450 11430 8440 11430 8429 11430 8419 11435 8410 11440 8410 11446 8410 11450 8405 11450 8400 11450 8394 11462 8371 11477 8347 11492 8324 11518 8278 11535 8245 11552 8212 11571 8176 11577 8165 11587 8145 11603 8110 11623 8060 11628 8046 11636 8027 11641 8018 11646 8008 11650 7993 11650 7985 11650 7970 11654 7960 11678 7913 11685 7900 11690 7881 11690 7871 11690 7860 11695 7848 11700 7845 11706 7842 11710 7824 11710 7805 11710 7786 11715 7768 11720 7765 11726 7762 11730 7746 11730 7730 11730 7714 11735 7698 11740 7695 11746 7692 11750 7674 11750 7655 11750 7636 11755 7618 11760 7615 11766 7612 11770 7594 11770 7576 11770 7559 11774 7540 11779 7535 11784 7529 11791 7505 11794 7480 11797 7455 11804 7404 11810 7365 11836 7192 11843 7086 11843 6815 11843 6546 11836 6439 11811 6270 11797 6181 11769 6035 11750 5960 11744 5935 11736 5903 11733 5887 11730 5872 11724 5857 11719 5854 11714 5851 11710 5836 11710 5820 11710 5804 11705 5788 11700 5785 11695 5782 11690 5768 11690 5755 11690 5742 11685 5728 11680 5725 11675 5722 11670 5710 11670 5699 11670 5689 11661 5658 11649 5632 11606 5535 11525 5375 11518 5372 11513 5370 11510 5360 11510 5349 11510 5339 11506 5330 11500 5330 11495 5330 11490 5324 11490 5317 11490 5310 11482 5295 11473 5284 11463 5274 11449 5253 11441 5238 11433 5222 11423 5210 11418 5210 11414 5210 11410 5203 11410 5195 11410 5187 11399 5168 11386 5153 11306 5061 11290 5042 11290 5033 11290 5018 10958 4700 10942 4700 10938 4700 10919 4686 10900 4670 10881 4654 10860 4640 10855 4640 10849 4640 10838 4631 10830 4620 10822 4609 10808 4600 10799 4600 10789 4600 10780 4596 10778 4592 10772 4578 10712 4540 10696 4540 10687 4540 10680 4536 10680 4532 10680 4528 10658 4513 10630 4499 10603 4486 10580 4472 10580 4468 10580 4463 10571 4460 10560 4460 10549 4460 10540 4456 10540 4450 10540 4445 10534 4440 10527 4440 10509 4440 10460 4416 10460 4408 10460 4403 10453 4400 10445 4400 10437 4400 10421 4396 10410 4390 10399 4385 10381 4376 10370 4370 10359 4364 10345 4360 10340 4360 10334 4360 10310 4351 10288 4340 10265 4329 10239 4320 10230 4320 10221 4320 10210 4316 10205 4312 10199 4307 10177 4298 10155 4292 10133 4285 10086 4271 10050 4260 10014 4249 9960 4235 9930 4229 9849 4213 9796 4201 9743 4189 9716 4184 9670 4175 9640 4170 9610 4165 9556 4156 9520 4150 9251 4105 9082 4096 8450 4096 7893 4097 7800 4100 7735 4125 7679 4146 7606 4185 7584 4205 7570 4218 7555 4230 7552 4232 7543 4236 7488 4309 7474 4335 7446 4388 7442 4397 7432 4420 7426 4434 7419 4456 7415 4470 7412 4484 7404 4511 7399 4530 7384 4582 7369 4685 7364 4770 7361 4811 7355 4854 7350 4865 7344 4877 7339 5051 7337 5285L7335 5685H6750 6165L6158 5430C6148 5077 6140 4947 6129 4936 6124 4930 6120 4896 6120 4859 6120 4822 6116 4788 6110 4785 6105 4782 6100 4755 6100 4725 6100 4695 6096 4668 6090 4665 6084 4662 6080 4644 6080 4625 6080 4606 6076 4588 6070 4585 6064 4582 6060 4568 6060 4554 6060 4541 6056 4521 6050 4510 6045 4499 6036 4481 6030 4470 6025 4459 6020 4443 6020 4435 6020 4427 6016 4420 6010 4420 6005 4420 6000 4407 6000 4390 6000 4374 5996 4360 5990 4360 5985 4360 5980 4354 5980 4347 5980 4339 5971 4325 5960 4315 5949 4305 5940 4292 5940 4285 5940 4272 5836 4170 5822 4170 5817 4170 5807 4163 5800 4155 5785 4137 5687 4090 5665 4090 5658 4090 5648 4086 5645 4080 5642 4075 5628 4070 5614 4070 5590 4070 5590 4069 5590 3970V3870L7288 3874C8906 3879 9100 3882 9395 3910 9456 3916 9539 3923 9580 3926 9621 3929 9659 3936 9665 3941 9670 3946 9702 3950 9736 3950 9771 3950 9802 3955 9805 3960 9808 3966 9842 3970 9880 3970 9918 3970 9952 3975 9955 3980 9958 3986 9981 3990 10005 3990 10029 3990 10052 3995 10055 4000 10058 4006 10081 4010 10105 4010 10129 4010 10152 4015 10155 4020 10158 4025 10181 4030 10205 4030 10229 4030 10251 4034 10254 4039 10257 4044 10277 4050 10297 4054 10385 4067 10410 4073 10416 4081 10419 4086 10436 4090 10455 4090 10474 4090 10492 4095 10495 4100 10498 4106 10513 4110 10527 4110 10549 4110 10643 4137 10705 4160 10758 4180 10957 4240 10972 4240 10981 4240 10992 4245 10995 4250 10998 4256 11009 4260 11020 4260 11030 4260 11055 4268 11077 4279 11098 4289 11135 4307 11158 4319 11182 4330 11208 4340 11216 4340 11224 4340 11230 4345 11230 4350 11230 4356 11236 4360 11244 4360 11257 4360 11295 4377 11385 4423 11407 4435 11461 4462 11505 4485 11549 4507 11587 4528 11588 4533 11590 4537 11596 4540 11602 4540 11608 4540 11632 4554 11657 4570 11681 4587 11703 4600 11706 4600 11709 4600 11744 4623 11785 4650 11826 4678 11863 4700 11867 4700 11871 4700 11889 4714 11907 4730 11925 4747 11941 4760 11944 4760 11950 4760 11996 4794 12082 4862 12203 4957 12532 5297 12602 5400 12612 5414 12633 5443 12649 5465 12666 5487 12684 5515 12689 5527 12694 5538 12703 5551 12709 5554 12715 5558 12727 5578 12736 5598 12746 5618 12760 5643 12768 5652 12776 5661 12796 5697 12814 5732 12832 5767 12851 5804 12857 5815 12863 5826 12878 5858 12890 5885 12902 5913 12916 5943 12921 5952 12926 5962 12930 5977 12930 5985 12930 5993 12935 6000 12940 6000 12946 6000 12950 6009 12950 6020 12950 6031 12955 6049 12960 6060 12966 6071 12975 6089 12980 6100 12986 6111 12990 6129 12990 6139 12990 6150 12995 6162 13000 6165 13006 6168 13010 6182 13010 6195 13010 6208 13015 6222 13020 6225 13026 6228 13030 6242 13030 6255 13030 6268 13035 6282 13040 6285 13046 6288 13050 6306 13050 6325 13050 6344 13055 6362 13060 6365 13066 6368 13070 6386 13070 6405 13070 6424 13075 6442 13080 6445 13086 6448 13090 6468 13090 6489 13090 6509 13094 6530 13099 6536 13104 6541 13111 6572 13114 6605 13117 6638 13125 6717 13132 6780 13147 6924 13147 7273 13131 7405 13125 7460 13117 7530 13114 7560 13111 7590 13105 7624 13100 7635 13090 7658 13081 7699 13073 7753 13070 7773 13064 7793 13059 7796 13054 7799 13050 7814 13050 7831 13050 7847 13046 7860 13040 7860 13035 7860 13030 7874 13030 7890 13030 7907 13026 7929 13020 7940 13015 7951 13006 7969 13000 7980 12995 7991 12990 8007 12990 8015 12990 8023 12986 8038 12981 8048 12976 8057 12968 8076 12962 8090 12956 8104 12938 8145 12921 8181 12904 8218 12890 8251 12890 8254 12890 8257 12872 8289 12850 8325 12828 8361 12810 8393 12810 8396 12810 8399 12797 8422 12780 8447 12764 8471 12750 8494 12750 8497 12750 8500 12739 8516 12725 8534 12712 8551 12686 8584 12668 8608 12638 8647 12574 8724 12499 8809 12466 8847 12318 8981 12266 9020 12247 9034 12205 9066 12171 9093 12137 9119 12108 9140 12105 9140 12103 9140 12077 9158 12048 9180 12019 9202 11991 9220 11987 9220 11982 9220 11959 9234 11935 9250 11911 9267 11889 9280 11885 9280 11881 9280 11860 9293 11837 9308 11799 9334 11643 9412 11595 9430 11559 9443 11526 9457 11480 9478 11455 9489 11419 9503 11400 9510 11381 9517 11356 9526 11345 9531 11267 9564 10965 9649 10865 9666 10849 9669 10826 9675 10815 9680 10804 9685 10777 9691 10755 9695 10733 9699 10695 9706 10670 9711 10514 9745 10236 9781 9950 9805 9909 9809 9869 9814 9861 9816 9837 9824 9879 9847 9930 9853 10042 9868 10066 9873 10075 9881 10080 9886 10096 9890 10111 9890 10126 9890 10142 9895 10145 9900 10148 9906 10166 9910 10185 9910 10204 9910 10222 9915 10225 9920 10228 9926 10246 9930 10265 9930 10284 9930 10302 9935 10305 9940 10308 9946 10322 9950 10335 9950 10348 9950 10362 9955 10365 9960 10368 9966 10382 9970 10395 9970 10408 9970 10422 9975 10425 9980 10428 9986 10440 9990 10451 9990 10461 9990 10478 9994 10488 9999 10497 10004 10516 10012 10530 10017 10544 10023 10575 10037 10598 10049 10622 10060 10650 10070 10661 10070 10671 10070 10680 10075 10680 10080 10680 10086 10685 10090 10692 10090 10709 10090 10954 10211 10958 10221 10960 10226 10970 10230 10981 10230 10991 10230 11000 10235 11000 10240 11000 10246 11006 10250 11013 10250 11020 10250 11036 10259 11048 10270 11060 10281 11076 10290 11084 10290 11092 10290 11100 10293 11102 10298 11104 10302 11130 10322 11160 10342 11190 10362 11236 10396 11263 10417 11289 10438 11336 10475 11368 10500 11423 10544 11509 10629 11560 10691 11574 10708 11602 10739 11623 10761 11643 10784 11660 10805 11660 10808 11660 10812 11670 10827 11683 10841 11704 10864 11711 10875 11743 10933 11749 10945 11758 10957 11761 10960 11764 10963 11777 10985 11791 11010 11804 11035 11817 11057 11820 11060 11823 11063 11830 11076 11836 11090 11856 11133 11893 11214 11900 11230 11904 11239 11911 11261 11915 11280 11919 11299 11925 11320 11929 11325 11939 11342 11959 11423 11960 11451 11960 11465 11964 11480 11969 11486 11978 11495 11986 11542 11996 11635 11999 11663 12005 11694 12011 11705 12024 11732 12016 12215 12001 12300 11995 12336 11987 12382 11984 12403 11980 12423 11974 12443 11969 12446 11964 12449 11960 12460 11960 12471 11960 12504 11909 12651 11879 12708 11863 12737 11850 12768 11850 12776 11850 12784 11846 12790 11840 12790 11835 12790 11830 12796 11830 12803 11830 12810 11822 12825 11813 12836 11803 12846 11789 12867 11781 12883 11773 12898 11763 12910 11758 12910 11754 12910 11750 12917 11750 12926 11750 12935 11737 12955 11720 12970 11704 12985 11690 13003 11690 13009 11690 13023 11481 13230 11468 13230 11462 13230 11446 13242 11432 13258 11417 13273 11393 13291 11378 13299 11362 13307 11350 13317 11350 13322 11350 13326 11346 13330 11340 13330 11335 13330 11300 13350 11263 13374 11226 13398 11148 13441 11090 13470 10992 13519 10972 13529 10913 13551 10869 13568 10835 13582 10818 13591 10808 13596 10791 13600 10781 13600 10770 13600 10758 13605 10755 13610 10752 13616 10738 13620 10725 13620 10712 13620 10698 13625 10695 13630 10692 13636 10678 13640 10665 13640 10652 13640 10638 13645 10635 13650 10632 13656 10614 13660 10595 13660 10576 13660 10558 13665 10555 13670 10552 13676 10534 13680 10515 13680 10496 13680 10478 13685 10475 13690 10472 13696 10454 13700 10435 13700 10416 13700 10398 13705 10395 13710 10392 13716 10374 13720 10355 13720 10336 13720 10318 13725 10315 13730 10312 13736 10289 13740 10265 13740 10241 13740 10218 13745 10215 13750 10212 13756 10187 13760 10159 13760 10132 13760 10110 13764 10110 13769 10110 13774 10080 13781 10043 13784 10005 13787 9939 13795 9895 13800 9535 13845 9310 13850 7373 13856L5590 13861V13760ZM6456 11382C6448 11369 6464 11334 6498 11289 6562 11205 6652 11092 6687 11052 6708 11028 6727 11004 6729 10998 6734 10982 6918 10800 6928 10800 6933 10800 6959 10779 6986 10754 7013 10728 7050 10696 7068 10682 7085 10669 7100 10654 7100 10649 7100 10637 7043 10638 7035 10650 7032 10656 7011 10660 6990 10660 6969 10660 6948 10665 6945 10670 6942 10676 6917 10680 6890 10680 6863 10680 6838 10685 6835 10690 6832 10696 6805 10700 6775 10700 6745 10700 6718 10705 6715 10710 6712 10716 6692 10720 6671 10720 6651 10720 6630 10724 6625 10729 6619 10734 6593 10741 6565 10744 6443 10758 6414 10762 6406 10771 6400 10776 6379 10780 6359 10780 6338 10780 6318 10785 6315 10790 6312 10796 6291 10800 6270 10800 6249 10800 6228 10805 6225 10810 6217 10823 6123 10823 6115 10811 6112 10805 6117 10795 6126 10788 6173 10750 6290 10624 6290 10611 6290 10607 6279 10593 6265 10580 6251 10567 6240 10547 6240 10535 6240 10524 6235 10509 6229 10503 6218 10492 6222 10346 6235 10280 6243 10236 6286 10146 6305 10130 6313 10123 6320 10112 6320 10106 6320 10100 6345 10070 6375 10040 6429 9987 6480 9904 6480 9870 6480 9861 6483 9850 6487 9846 6500 9833 6519 9745 6520 9694 6520 9645 6488 9577 6444 9533 6401 9490 6431 9393 6510 9315 6559 9266 6572 9240 6547 9240 6540 9240 6529 9245 6523 9251 6508 9266 6459 9258 6447 9238 6439 9226 6442 9214 6463 9187 6478 9167 6490 9147 6490 9142 6490 9137 6497 9127 6505 9120 6527 9102 6590 8968 6590 8939 6590 8901 6562 8882 6497 8874 6434 8867 6423 8849 6460 8815 6471 8805 6480 8792 6480 8787 6480 8781 6489 8767 6500 8755 6527 8726 6610 8564 6610 8541 6610 8530 6615 8518 6620 8515 6626 8512 6630 8488 6631 8462 6631 8436 6635 8407 6638 8397 6642 8388 6640 8336 6634 8282 6616 8127 6592 8092 6563 8180 6555 8205 6542 8232 6534 8241 6526 8249 6520 8261 6520 8266 6520 8278 6387 8410 6375 8410 6369 8410 6354 8419 6340 8430 6306 8456 6213 8458 6194 8433 6175 8407 6177 8344 6198 8318 6245 8259 6335 8181 6423 8123 6487 8081 6500 8067 6483 8057 6473 8051 6443 8072 6299 8181 6174 8275 6095 8330 6085 8330 6081 8330 6065 8339 6050 8350 6034 8361 5998 8383 5968 8399 5883 8444 5836 8471 5825 8481 5820 8486 5809 8490 5800 8490 5792 8490 5774 8499 5760 8510 5746 8521 5728 8530 5718 8530 5709 8530 5682 8540 5658 8551 5606 8577 5588 8585 5535 8601 5513 8608 5491 8618 5485 8622 5480 8626 5464 8630 5449 8630 5434 8630 5418 8635 5415 8640 5412 8646 5394 8650 5375 8650 5356 8650 5338 8655 5335 8660 5332 8666 5305 8670 5276 8670 5248 8670 5219 8675 5213 8681 5185 8709 4993 8677 4950 8637 4902 8591 4919 8478 4984 8421 5052 8359 5088 8330 5095 8330 5099 8330 5114 8322 5128 8311 5167 8284 5229 8250 5241 8250 5246 8250 5270 8241 5292 8230 5315 8219 5342 8210 5351 8210 5361 8210 5372 8206 5375 8200 5378 8195 5392 8190 5405 8190 5418 8190 5432 8186 5435 8180 5438 8175 5452 8170 5465 8170 5478 8170 5491 8166 5494 8161 5497 8156 5514 8150 5532 8147 5550 8144 5583 8137 5605 8130 5683 8107 5796 8085 5945 8064 6148 8035 6195 8029 6296 8022 6439 8012 6456 7996 6519 7815 6539 7756 6539 7755 6521 7736 6504 7719 6497 7718 6456 7729 6402 7742 6330 7744 6330 7731 6330 7726 6340 7709 6353 7693 6387 7653 6392 7631 6375 7607 6358 7583 6355 7534 6370 7525 6376 7522 6380 7512 6380 7503 6380 7495 6392 7476 6408 7461 6436 7434 6442 7425 6493 7330 6510 7300 6539 7254 6557 7228 6575 7202 6590 7176 6590 7172 6590 7167 6599 7155 6610 7145 6621 7135 6630 7123 6630 7119 6630 7108 6722 6983 6771 6926 6791 6904 6811 6877 6816 6868 6821 6859 6853 6822 6888 6787 6922 6751 6950 6719 6950 6714 6950 6710 6979 6676 7015 6639 7104 6548 7102 6528 7005 6537 6977 6540 6892 6537 6815 6531 6638 6516 6565 6493 6488 6428 6416 6366 6391 6365 6339 6422 6317 6446 6300 6469 6300 6473 6300 6500 6161 6651 6065 6729 5996 6784 5802 6890 5768 6890 5759 6890 5748 6895 5745 6900 5742 6906 5726 6910 5710 6910 5694 6910 5678 6915 5675 6920 5666 6934 5524 6933 5497 6918 5430 6883 5433 6848 5511 6771 5550 6731 5620 6670 5626 6670 5629 6670 5664 6648 5705 6620 5746 6593 5781 6570 5784 6570 5787 6570 5822 6554 5861 6535 5900 6516 5987 6482 6054 6460 6120 6438 6184 6416 6195 6411 6206 6406 6237 6396 6264 6388 6310 6376 6370 6325 6370 6299 6370 6284 6341 6276 6327 6288 6321 6293 6290 6301 6260 6304 6230 6308 6179 6315 6148 6321 6116 6326 6064 6334 6033 6339 6001 6345 5953 6354 5925 6360 5898 6366 5855 6374 5830 6376 5805 6379 5776 6385 5765 6390 5754 6395 5727 6401 5705 6404 5632 6414 5536 6429 5485 6441 5458 6447 5406 6455 5370 6460 5334 6465 5286 6472 5262 6476 5239 6479 5213 6479 5204 6476 5177 6466 5207 6440 5246 6440 5264 6440 5282 6436 5285 6430 5288 6425 5308 6420 5329 6420 5349 6420 5370 6416 5376 6411 5381 6406 5406 6399 5433 6396 5459 6393 5501 6387 5528 6384 5554 6381 5579 6374 5584 6369 5590 6364 5613 6360 5636 6360 5660 6360 5682 6356 5685 6350 5688 6345 5708 6340 5729 6340 5749 6340 5770 6336 5776 6331 5784 6323 5813 6317 5920 6304 5945 6301 5969 6294 5974 6289 5980 6284 6006 6280 6032 6280 6058 6280 6080 6276 6080 6270 6080 6264 6106 6260 6139 6260 6172 6260 6202 6256 6205 6250 6208 6245 6238 6240 6270 6240 6302 6240 6332 6236 6335 6230 6338 6225 6355 6220 6372 6220 6391 6220 6413 6211 6427 6198 6447 6179 6454 6178 6470 6188 6493 6202 6661 6205 6676 6191 6686 6181 6783 6174 7052 6164 7202 6159 7221 6160 7226 6175 7235 6198 7202 6219 7154 6220 7132 6220 7110 6224 7104 6229 7099 6234 7066 6240 7030 6243 6994 6246 6943 6254 6915 6260 6888 6266 6847 6274 6825 6276 6803 6279 6776 6285 6765 6290 6754 6295 6732 6301 6715 6304 6699 6306 6665 6314 6640 6320 6615 6326 6579 6334 6560 6337 6467 6351 6481 6395 6595 6448 6612 6456 6633 6466 6642 6471 6652 6476 6675 6480 6693 6480 6711 6480 6731 6485 6737 6491 6744 6498 6812 6502 6939 6502 7157 6502 7138 6508 7252 6396 7346 6304 7407 6279 7433 6322 7453 6353 7389 6439 7322 6474 7282 6495 7209 6520 7188 6520 7179 6520 7141 6555 7103 6597 7066 6639 7011 6698 6983 6728 6954 6758 6930 6786 6930 6790 6930 6793 6903 6824 6870 6858 6837 6893 6810 6924 6810 6928 6810 6933 6802 6945 6792 6956 6782 6966 6764 6991 6750 7010 6737 7029 6718 7052 6708 7061 6698 7070 6690 7083 6690 7089 6690 7096 6679 7112 6666 7125 6652 7138 6639 7159 6635 7170 6632 7181 6624 7190 6619 7190 6614 7190 6610 7194 6610 7199 6610 7209 6505 7379 6489 7395 6475 7409 6478 7417 6500 7423 6517 7427 6520 7437 6520 7478 6520 7514 6515 7532 6500 7545 6489 7555 6480 7567 6480 7573 6480 7578 6464 7600 6445 7621 6398 7673 6400 7680 6465 7680 6557 7680 6590 7719 6561 7792 6556 7805 6544 7840 6535 7870 6526 7900 6510 7935 6499 7948 6457 8001 6465 8004 6638 7995 6724 7990 6817 7987 6844 7988 6960 7990 6898 8040 6779 8040 6669 8040 6630 8055 6630 8097 6630 8115 6634 8130 6639 8130 6660 8130 6680 8455 6662 8495 6657 8506 6646 8535 6639 8560 6622 8618 6573 8717 6543 8753 6515 8787 6513 8810 6538 8810 6572 8810 6608 8834 6619 8865 6633 8904 6633 8957 6620 8965 6615 8968 6610 8981 6609 8993 6608 9015 6578 9072 6528 9148 6492 9202 6491 9200 6555 9200 6605 9200 6612 9203 6622 9225 6632 9248 6630 9254 6599 9288 6556 9334 6509 9397 6491 9432 6478 9456 6480 9463 6506 9505 6522 9531 6542 9564 6550 9579 6568 9612 6576 9738 6561 9753 6555 9759 6550 9778 6550 9794 6549 9811 6541 9843 6530 9865 6500 9927 6502 9930 6575 9930 6672 9930 6690 9945 6690 10026 6690 10061 6686 10098 6681 10108 6676 10117 6667 10139 6660 10155 6647 10186 6627 10226 6589 10297 6577 10321 6549 10361 6528 10387 6467 10462 6466 10463 6442 10497 6430 10515 6391 10558 6357 10594 6287 10667 6220 10745 6220 10754 6220 10764 6269 10761 6275 10750 6278 10745 6300 10740 6324 10740 6347 10740 6370 10736 6376 10731 6384 10722 6401 10720 6525 10704 6553 10701 6579 10694 6585 10689 6590 10684 6613 10680 6636 10680 6660 10680 6682 10676 6685 10670 6688 10665 6711 10660 6735 10660 6759 10660 6782 10656 6785 10650 6788 10645 6813 10640 6839 10640 6865 10640 6890 10636 6896 10631 6901 10626 6925 10620 6950 10617 6975 10614 7020 10606 7050 10600 7080 10594 7131 10586 7162 10582 7193 10578 7227 10567 7238 10557 7248 10548 7260 10540 7263 10540 7267 10540 7293 10522 7322 10500 7351 10478 7380 10460 7386 10460 7392 10460 7403 10453 7410 10445 7417 10437 7447 10418 7479 10403 7510 10388 7555 10362 7580 10345 7606 10329 7660 10300 7700 10281 7741 10263 7792 10239 7813 10229 7835 10218 7860 10210 7870 10210 7881 10210 7892 10206 7895 10200 7898 10195 7912 10190 7926 10190 7940 10190 7959 10186 7968 10181 7988 10170 8069 10188 8094 10209 8125 10235 8111 10302 8065 10342 8036 10367 7851 10460 7829 10460 7819 10460 7808 10465 7805 10470 7802 10476 7788 10480 7775 10480 7762 10480 7748 10485 7745 10490 7742 10496 7728 10500 7715 10500 7702 10500 7688 10505 7685 10510 7682 10516 7664 10520 7645 10520 7626 10520 7608 10525 7605 10530 7602 10536 7584 10540 7565 10540 7546 10540 7528 10545 7525 10550 7522 10556 7499 10560 7475 10560 7451 10560 7428 10565 7425 10570 7422 10576 7404 10580 7385 10580 7366 10580 7348 10585 7345 10590 7342 10596 7322 10600 7300 10600 7257 10600 7190 10631 7145 10672 7129 10688 7112 10700 7108 10700 7104 10700 7073 10727 7038 10760 7004 10793 6973 10820 6968 10820 6957 10820 6753 11029 6702 11092 6679 11121 6621 11195 6574 11255 6470 11389 6464 11395 6456 11382ZM6364 10548C6370 10541 6387 10519 6400 10500 6413 10481 6431 10458 6440 10450 6487 10407 6602 10216 6641 10115 6669 10043 6654 9970 6612 9970 6525 9970 6320 10174 6320 10261 6320 10271 6316 10282 6310 10285 6299 10292 6296 10517 6306 10544 6313 10563 6347 10565 6364 10548ZM7404 10531C7410 10523 7428 10519 7533 10504 7556 10501 7579 10494 7585 10489 7590 10484 7604 10480 7617 10480 7630 10480 7648 10476 7658 10471 7667 10466 7727 10445 7790 10425 8009 10353 8111 10280 8064 10229 8045 10208 7957 10201 7945 10220 7942 10226 7928 10230 7916 10230 7903 10230 7866 10243 7834 10258 7689 10328 7642 10353 7595 10380 7568 10396 7538 10413 7530 10416 7522 10420 7504 10431 7490 10440 7476 10450 7441 10470 7413 10485 7360 10512 7343 10540 7379 10540 7390 10540 7401 10536 7404 10531ZM5265 8640C5268 8635 5291 8630 5315 8630 5339 8630 5362 8626 5365 8620 5368 8615 5382 8610 5395 8610 5408 8610 5422 8606 5425 8600 5428 8595 5442 8590 5455 8590 5468 8590 5482 8586 5485 8580 5488 8575 5500 8570 5511 8570 5521 8570 5538 8566 5548 8561 5565 8552 5598 8538 5643 8521 5655 8517 5694 8498 5730 8480 5936 8376 6003 8340 6019 8326 6029 8317 6041 8310 6047 8310 6053 8310 6063 8303 6070 8295 6077 8286 6099 8272 6119 8263 6139 8253 6181 8225 6213 8200 6246 8175 6286 8145 6304 8134 6343 8108 6363 8084 6357 8072 6349 8061 6159 8082 6010 8111 5980 8116 5935 8123 5910 8126 5885 8129 5856 8135 5845 8140 5824 8149 5785 8157 5715 8167 5693 8170 5671 8176 5666 8181 5660 8186 5644 8190 5629 8190 5614 8190 5598 8195 5595 8200 5592 8206 5576 8210 5560 8210 5544 8210 5528 8215 5525 8220 5522 8226 5508 8230 5495 8230 5482 8230 5468 8235 5465 8240 5462 8246 5448 8250 5435 8250 5422 8250 5408 8255 5405 8260 5402 8266 5390 8270 5379 8270 5369 8270 5352 8274 5342 8279 5333 8284 5282 8309 5230 8334 5107 8393 5027 8447 4990 8496 4952 8547 4952 8576 4992 8617L5024 8650H5141C5209 8650 5261 8646 5265 8640ZM6326 8395C6403 8356 6550 8169 6550 8112 6550 8093 6523 8098 6480 8125 6458 8139 6436 8150 6430 8150 6425 8150 6420 8155 6420 8160 6420 8166 6413 8170 6405 8170 6397 8170 6352 8208 6305 8255 6231 8330 6220 8345 6220 8375 6220 8409 6221 8410 6259 8410 6280 8410 6311 8403 6326 8395ZM6458 7550C6499 7496 6479 7460 6436 7511 6408 7544 6402 7580 6423 7580 6430 7580 6446 7567 6458 7550ZM5637 6899C5664 6892 5695 6883 5708 6879 5720 6874 5740 6866 5753 6861 5914 6798 6107 6669 6177 6577 6272 6454 6290 6430 6290 6425 6290 6416 6221 6420 6215 6430 6212 6436 6201 6440 6191 6440 6182 6440 6155 6449 6132 6460 6110 6471 6084 6480 6076 6480 6068 6480 6058 6485 6055 6490 6052 6496 6039 6500 6026 6500 6014 6500 6000 6504 5994 6509 5989 6513 5949 6532 5905 6549 5861 6567 5808 6593 5788 6606 5767 6619 5748 6630 5745 6630 5739 6630 5679 6670 5670 6680 5667 6683 5649 6697 5630 6710 5611 6723 5571 6757 5543 6786 5477 6852 5473 6882 5528 6897 5579 6911 5583 6912 5637 6899ZM7348 6407C7386 6370 7388 6360 7357 6360 7332 6360 7255 6431 7267 6443 7278 6455 7313 6439 7348 6407ZM6515 6330C6518 6325 6534 6320 6550 6320 6566 6320 6581 6316 6584 6311 6587 6306 6604 6300 6622 6297 6680 6287 6741 6273 6746 6267 6763 6250 6734 6238 6691 6245 6666 6249 6616 6255 6580 6259 6498 6269 6480 6277 6480 6304 6480 6337 6501 6353 6515 6330ZM6210 8910C6210 8894 6253 8860 6272 8860 6296 8860 6306 8886 6290 8905 6276 8921 6210 8926 6210 8910Z"/>
</g>
</svg>
